<?xml version="1.0" encoding="utf-8"?>
<!-- Generator: Adobe Illustrator 16.0.0, SVG Export Plug-In . SVG Version: 6.00 Build 0)  -->
<!DOCTYPE svg PUBLIC "-//W3C//DTD SVG 1.1 Tiny//EN" "http://www.w3.org/Graphics/SVG/1.1/DTD/svg11-tiny.dtd">
<svg version="1.1" baseProfile="tiny" xmlns="http://www.w3.org/2000/svg" xmlns:xlink="http://www.w3.org/1999/xlink" x="0px"
	 y="0px" width="902.333px" height="169.94px" viewBox="0 0 902.333 169.94" xml:space="preserve">
<g id="Layer_1" display="none">
	<g display="inline">
		<path fill="#FFFFFF" d="M196.481,95.201v-0.815c4.08-4.761,7.344-10.064,7.344-17.001V17.68c0-6.936-3.264-12.24-7.344-17V0
			h26.248l30.736,70.177L283.931,0h22.984v0.68c-3.129,4.216-4.762,10.2-4.762,17.136v59.568c0,6.937,1.633,12.92,4.762,17.136
			v0.681h-29.242v-0.681c3.129-4.215,4.762-10.199,4.762-17.136v-63.92l-35.77,81.737h-2.855l-35.904-81.193v63.376
			c0,6.937,3.264,12.24,7.344,17.001v0.815H196.481z"/>
		<path fill="#FFFFFF" d="M321.327,61.201c0-20.808,14.416-35.769,34.68-35.769c20.129,0,34.545,14.96,34.545,35.769
			S376.136,96.97,356.007,96.97C335.743,96.97,321.327,82.009,321.327,61.201z M370.831,61.201c0-18.768-4.488-32.64-14.824-32.64
			s-14.959,13.872-14.959,32.64s4.623,32.64,14.959,32.64S370.831,79.969,370.831,61.201z"/>
		<path fill="#FFFFFF" d="M400.343,61.201c0-20.808,14.416-35.769,34.68-35.769c20.129,0,34.545,14.96,34.545,35.769
			S455.151,96.97,435.022,96.97C414.759,96.97,400.343,82.009,400.343,61.201z M449.847,61.201c0-18.768-4.488-32.64-14.824-32.64
			s-14.959,13.872-14.959,32.64s4.623,32.64,14.959,32.64S449.847,79.969,449.847,61.201z"/>
		<path fill="#FFFFFF" d="M483.03,95.201v-0.681c2.447-3.535,3.807-9.111,3.807-15.368V48.688c0-7.752-1.768-11.832-4.895-14.96
			v-0.68l22.576-7.616h0.68v13.329h0.68c3.4-7.344,10.881-13.329,21.352-13.329c13.465,0,21.896,9.521,21.896,22.984v30.736
			c0,6.256,1.359,11.833,3.809,15.368v0.681h-25.977v-0.681c2.447-3.535,3.809-9.111,3.809-15.368V48.825
			c0-7.344-4.896-12.784-12.377-12.784c-7.072,0-13.191,4.896-13.191,12.784v30.328c0,6.256,1.359,11.833,3.807,15.368v0.681H483.03
			z"/>
		<path fill="#FFFFFF" d="M603.39,95.201v-0.681c3.127-4.215,4.76-10.199,4.76-17.136V17.816c0-6.936-1.633-12.92-4.76-17.136V0
			h29.24v0.68c-3.129,4.216-4.762,10.2-4.762,17.136v26.656h39.986V17.816c0-6.936-1.633-12.92-4.762-17.136V0h29.24v0.68
			c-3.127,4.216-4.76,10.2-4.76,17.136v59.568c0,6.937,1.633,12.92,4.76,17.136v0.681h-29.24v-0.681
			c3.129-4.215,4.762-10.199,4.762-17.136V47.873h-39.986v29.512c0,6.937,1.633,12.92,4.762,17.136v0.681H603.39z"/>
		<path fill="#FFFFFF" d="M771.62,90.441c-2.176,3.945-7.344,6.529-13.328,6.529c-7.617,0-12.377-3.809-13.328-9.929l-0.137-0.544
			h-0.408c-3.264,5.848-9.248,10.473-19.176,10.473c-11.152,0-17.68-5.712-17.68-14.688c0-15.776,19.313-22.577,37.4-22.577v-8.432
			c0-9.928-6.393-17-17.273-17c-8.023,0-14.143,3.944-17.543,10.336h-1.359c3.127-11.968,13.871-19.176,27.199-19.176
			c17.408,0,27.336,10.744,27.336,25.84v34.137c0,4.08,2.041,5.44,4.217,5.44c1.768,0,2.992-0.544,3.4-1.088L771.62,90.441z
			 M744.964,78.473v-15.64c-11.016,0.272-18.361,5.712-18.361,15.096c0,7.48,4.217,10.2,8.568,10.2
			C740.884,88.129,744.964,83.641,744.964,78.473z"/>
		<path fill="#FFFFFF" d="M781.954,95.201v-0.681c2.447-3.535,3.807-9.111,3.807-15.368V48.688c0-7.752-1.768-11.832-4.895-14.96
			v-0.68l22.576-7.616h0.68v18.632h0.68c2.855-11.288,9.52-18.632,23.801-18.632v17h-7.889c-11.152,0-16.592,4.08-16.592,15.504
			v21.216c0,6.256,1.359,11.833,3.807,15.368v0.681H781.954z"/>
		<path fill="#FFFFFF" d="M897.417,72.217c-3.127,14.824-14.416,24.753-29.92,24.753c-17.951,0-32.369-12.241-32.369-34.137
			c0-22.712,15.641-37.401,33.865-37.401c17.408,0,27.473,12.24,27.473,25.977h-46.514c0.816,21.08,12.648,32.096,26.656,32.096
			c8.977,0,16.049-4.352,19.449-11.288H897.417z M849.952,48.281h28.426c-1.088-11.288-5.984-18.904-14.553-18.904
			C855.937,29.376,850.226,35.632,849.952,48.281z"/>
	</g>
	<g display="inline">
		<path fill="#FFFFFF" d="M223.089,151.46c1.641,1.961,2.461,4.24,2.461,6.84c0,2.121-0.531,4.031-1.59,5.73
			c-1.061,1.701-2.61,3.041-4.65,4.02c-2.04,0.98-4.48,1.471-7.32,1.471h-14.52v-41.941h14.1c4.239,0,7.471,0.982,9.689,2.941
			c2.221,1.959,3.33,4.5,3.33,7.619c0,2.602-0.699,4.711-2.1,6.33c-1.4,1.621-3.201,2.75-5.4,3.391
			C219.449,148.3,221.448,149.501,223.089,151.46z M201.669,146.12h9.78c2.84,0,5.03-0.67,6.57-2.01
			c1.539-1.34,2.31-3.189,2.31-5.551c0-2.318-0.771-4.139-2.31-5.459c-1.54-1.32-3.79-1.98-6.75-1.98h-9.601V146.12z M218.8,163.819
			c1.699-1.439,2.55-3.42,2.55-5.939s-0.891-4.529-2.671-6.029c-1.779-1.5-4.17-2.25-7.17-2.25h-9.84v16.379h10.021
			C214.729,165.979,217.099,165.261,218.8,163.819z"/>
		<path fill="#FFFFFF" d="M269.589,159.56h-19.08l-3.66,9.961h-4.439l15.3-41.4h4.739l15.24,41.4h-4.439L269.589,159.56z
			 M268.329,156.079l-8.28-22.68l-8.28,22.68H268.329z"/>
		<path fill="#FFFFFF" d="M300.608,127.579v41.941h-4.201v-41.941H300.608z"/>
		<path fill="#FFFFFF" d="M341.526,127.579v31.74c0,3.201-0.98,5.771-2.939,7.711c-1.961,1.939-4.58,2.91-7.859,2.91
			c-3.4,0-6.111-1.029-8.131-3.09s-3.029-4.85-3.029-8.371h4.26c0.039,2.281,0.609,4.141,1.711,5.58
			c1.1,1.441,2.828,2.16,5.189,2.16c2.24,0,3.9-0.66,4.98-1.98c1.08-1.318,1.619-2.959,1.619-4.92v-31.74H341.526z"/>
		<path fill="#FFFFFF" d="M368.286,127.579v41.941h-4.199v-41.941H368.286z"/>
		<path fill="#FFFFFF" d="M393.847,127.579v26.4c0,4.162,0.988,7.24,2.969,9.24s4.689,3,8.131,3c3.439,0,6.129-0.99,8.07-2.969
			c1.939-1.98,2.91-5.07,2.91-9.271v-26.4h4.199v26.342c0,5.32-1.41,9.32-4.23,12s-6.49,4.02-11.01,4.02s-8.189-1.34-11.01-4.02
			s-4.23-6.68-4.23-12v-26.342H393.847z"/>
	</g>
	<g display="inline">
		<rect x="-3.333" y="0.788" fill="#AE2D2D" width="169" height="169"/>
		<path fill="#FFFFFF" d="M117.339,43.684c6.461,2.528,13.596,11.879,15.172,12.496c1.686,0.661,0.42,7.591-3.092,8.012
			s-15.732,2.528-16.014,7.866c-0.279,5.338,1.59,2.926,14.787,6.17c9.713,2.388,15.811,4.637,23.055,7.031
			c3.551,1.174,7.264,1.97,7.904,5.195c0.637,3.227-1.789,6.196-5.375,4.751c-3.588-1.446-11.707-4.795-23.551-6.286
			c-11.754-1.479-31.758-0.637-41.074,1.12c-8.119,1.53-17.887,3.935-39.049,13.297c-3.688,1.631-23.691,13.015-26.033,17.884
			s-11.332,17.872-15.545,20.413c-4.215,2.543-5.158-0.481-4.012-7.532c1.148-7.054,6.07-9.417,6.164-10.728
			c0,0,6.139-5.763,7.775-10.173c1.549-4.174-1.268-15.158-2.766-17.778c-1.498-2.622-1.732-4.449-5.758-6.322
			c-4.027-1.873-5.994-4.308-5.15-7.305c0.842-2.997,4.963-4.308,9.645-5.151c4.684-0.842,40.268-14.326,53.658-13.764
			c13.393,0.562,22.008,2.154,24.256-0.843c2.248-2.997,0.936-5.806-1.217-8.428c-2.154-2.622-31.467-3.463-33.715-15.731
			c0,0,1.594-2.81,6.93-1.873c0,0-3.746-6.274-1.871-8.615c0,0,8.803-2.528,33.807,17.699
			C96.271,45.09,110.878,41.155,117.339,43.684z"/>
	</g>
</g>
<g id="Layer_2">
	<g>
		<path fill="#FFFFFF" d="M200.086,95.106V94.29c4.08-4.76,7.344-10.064,7.344-17V17.585c0-6.936-3.264-12.24-7.344-17v-0.68h26.248
			l30.736,70.177l30.465-70.177h22.984v0.68c-3.129,4.216-4.761,10.2-4.761,17.136V77.29c0,6.937,1.632,12.92,4.761,17.136v0.681
			h-29.241v-0.681c3.128-4.216,4.761-10.2,4.761-17.136v-63.92l-35.769,81.737h-2.856L211.51,13.913V77.29
			c0,6.937,3.265,12.24,7.345,17v0.816H200.086z"/>
		<path fill="#FFFFFF" d="M324.933,61.105c0-20.808,14.416-35.769,34.68-35.769c20.129,0,34.545,14.96,34.545,35.769
			s-14.416,35.769-34.545,35.769C339.349,96.874,324.933,81.914,324.933,61.105z M374.437,61.105c0-18.768-4.488-32.64-14.824-32.64
			s-14.96,13.872-14.96,32.64s4.624,32.641,14.96,32.641S374.437,79.874,374.437,61.105z"/>
		<path fill="#FFFFFF" d="M403.948,61.105c0-20.808,14.416-35.769,34.68-35.769c20.129,0,34.545,14.96,34.545,35.769
			s-14.416,35.769-34.545,35.769C418.364,96.874,403.948,81.914,403.948,61.105z M453.452,61.105c0-18.768-4.488-32.64-14.824-32.64
			s-14.96,13.872-14.96,32.64s4.624,32.641,14.96,32.641S453.452,79.874,453.452,61.105z"/>
		<path fill="#FFFFFF" d="M486.635,95.106v-0.681c2.448-3.536,3.808-9.112,3.808-15.368V48.593c0-7.752-1.768-11.832-4.896-14.96
			v-0.68l22.576-7.616h0.68v13.329h0.68c3.4-7.344,10.881-13.329,21.353-13.329c13.464,0,21.896,9.521,21.896,22.984v30.736
			c0,6.256,1.359,11.833,3.808,15.368v0.681h-25.976v-0.681c2.447-3.536,3.808-9.112,3.808-15.368V48.729
			c0-7.344-4.896-12.784-12.376-12.784c-7.072,0-13.192,4.896-13.192,12.784v30.328c0,6.256,1.36,11.833,3.808,15.368v0.681H486.635
			z"/>
		<path fill="#FFFFFF" d="M606.994,95.106v-0.681c3.128-4.216,4.76-10.2,4.76-17.136V17.721c0-6.936-1.632-12.92-4.76-17.136v-0.68
			h29.24v0.68c-3.128,4.216-4.761,10.2-4.761,17.136v26.656h39.985V17.721c0-6.936-1.633-12.92-4.761-17.136v-0.68h29.24v0.68
			c-3.128,4.216-4.76,10.2-4.76,17.136V77.29c0,6.937,1.632,12.92,4.76,17.136v0.681h-29.24v-0.681
			c3.128-4.216,4.761-10.2,4.761-17.136V47.777h-39.985V77.29c0,6.937,1.633,12.92,4.761,17.136v0.681H606.994z"/>
		<path fill="#FFFFFF" d="M775.225,90.346c-2.176,3.944-7.344,6.528-13.328,6.528c-7.616,0-12.376-3.809-13.328-9.928l-0.136-0.544
			h-0.408c-3.264,5.848-9.248,10.472-19.176,10.472c-11.152,0-17.681-5.712-17.681-14.688c0-15.776,19.313-22.577,37.4-22.577
			v-8.432c0-9.928-6.392-17-17.272-17c-8.023,0-14.144,3.944-17.544,10.336h-1.359c3.128-11.968,13.872-19.176,27.2-19.176
			c17.408,0,27.336,10.744,27.336,25.84v34.137c0,4.08,2.04,5.44,4.216,5.44c1.769,0,2.992-0.544,3.4-1.088L775.225,90.346z
			 M748.568,78.378v-15.64c-11.016,0.272-18.36,5.712-18.36,15.096c0,7.48,4.217,10.2,8.568,10.2
			C744.488,88.034,748.568,83.546,748.568,78.378z"/>
		<path fill="#FFFFFF" d="M785.559,95.106v-0.681c2.448-3.536,3.808-9.112,3.808-15.368V48.593c0-7.752-1.768-11.832-4.896-14.96
			v-0.68l22.576-7.616h0.68v18.632h0.68c2.856-11.288,9.521-18.632,23.801-18.632v17h-7.889c-11.151,0-16.592,4.08-16.592,15.504
			v21.216c0,6.256,1.36,11.833,3.808,15.368v0.681H785.559z"/>
		<path fill="#FFFFFF" d="M901.022,72.122c-3.128,14.824-14.416,24.752-29.92,24.752c-17.952,0-32.369-12.24-32.369-34.136
			c0-22.712,15.641-37.401,33.864-37.401c17.408,0,27.473,12.24,27.473,25.977h-46.513c0.816,21.08,12.648,32.096,26.656,32.096
			c8.977,0,16.049-4.352,19.448-11.288H901.022z M853.558,48.186h28.425c-1.088-11.288-5.984-18.904-14.553-18.904
			C859.542,29.281,853.83,35.537,853.558,48.186z"/>
	</g>
	<g>
		<path fill="#FFFFFF" d="M201.05,169.425v-42.012h17.842c7.998,0,12.363,4.834,12.363,10.869c0,5.186-3.193,7.91-6.24,9.141
			c3.545,1.348,7.676,4.219,7.676,10.166c0,6.563-4.57,11.836-13.799,11.836H201.05z M218.892,145.753
			c4.746,0,8.613-2.285,8.613-7.471s-3.281-7.471-8.613-7.471h-14.15v14.941H218.892z M218.892,166.026
			c6.475,0,10.049-2.93,10.049-8.438s-4.16-8.438-10.049-8.438h-14.15v16.875H218.892z"/>
		<path fill="#FFFFFF" d="M253.45,169.425h-3.926l17.783-42.012h3.223l17.783,42.012h-3.926l-5.596-13.33h-19.746L253.45,169.425z
			 M260.481,152.696h16.875l-8.438-20.039L260.481,152.696z"/>
		<path fill="#FFFFFF" d="M307.228,127.413h3.691v42.012h-3.691V127.413z"/>
		<path fill="#FFFFFF" d="M334.14,161.896c1.377,2.549,3.604,4.717,8.174,4.717c6.68,0,8.438-3.809,8.438-10.02v-29.18h3.691v29.18
			c0,8.906-3.926,13.418-12.129,13.418c-7.178,0-10.371-3.809-11.602-7.002L334.14,161.896z"/>
		<path fill="#FFFFFF" d="M375.993,127.413h3.691v42.012h-3.691V127.413z"/>
		<path fill="#FFFFFF" d="M430.415,152.022v-24.609h3.691v24.609c0,11.426-6.855,17.988-16.436,17.988s-16.436-6.563-16.436-17.988
			v-24.609h3.691v24.609c0,8.73,4.57,14.59,12.744,14.59S430.415,160.753,430.415,152.022z"/>
	</g>
	<g>
		<path fill="#FFFFFF" d="M746.2,135.239v5.203c-0.094,1.656-0.125,3.695-0.094,6.117s0.164,5.211,0.398,8.367
			s0.469,5.938,0.703,8.344s0.414,4.438,0.539,6.094c-0.031,0.063-0.07,0.156-0.117,0.281s-0.109,0.266-0.188,0.422
			s-0.148,0.289-0.211,0.398s-0.109,0.211-0.141,0.305c-0.781,0.156-1.75,0.078-2.906-0.234s-2.477-1.031-3.961-2.156
			s-2.758-2.18-3.82-3.164s-1.922-1.711-2.578-2.18c-0.156,0.188-0.383,0.453-0.68,0.797s-0.773,0.688-1.43,1.031
			s-1.32,0.57-1.992,0.68s-1.258,0.164-1.758,0.164c0.313-1.063,0.688-2.367,1.125-3.914s0.867-3.336,1.289-5.367
			s0.719-3.805,0.891-5.32s0.289-2.789,0.352-3.82c0.031-0.656,0.07-1.484,0.117-2.484s0.078-2.125,0.094-3.375
			s0.031-2.289,0.047-3.117s0.039-1.508,0.07-2.039l0.047-2.391c-0.094-0.281-0.117-0.578-0.07-0.891s0.211-0.586,0.492-0.82
			s0.516-0.383,0.703-0.445s0.313-0.109,0.375-0.141c0.563,0.25,1.109,0.641,1.641,1.172s0.906,1.219,1.125,2.063
			s0.305,1.555,0.258,2.133s-0.086,1.008-0.117,1.289c0.156-0.125,0.383-0.25,0.68-0.375s0.68-0.18,1.148-0.164
			s0.891,0.063,1.266,0.141s0.688,0.133,0.938,0.164c0.031-0.094,0.086-0.227,0.164-0.398s0.141-0.344,0.188-0.516
			s0.07-0.289,0.07-0.352s0-0.109,0-0.141v-4.547c-0.344-0.188-0.797-0.352-1.359-0.492s-1.203-0.32-1.922-0.539
			s-1.297-0.531-1.734-0.938s-0.766-0.859-0.984-1.359c0.625-0.563,1.438-1.18,2.438-1.852s2.172-1.156,3.516-1.453
			s2.492-0.289,3.445,0.023s1.742,0.688,2.367,1.125c0.344,0.406,0.664,0.883,0.961,1.43s0.414,1.148,0.352,1.805
			s-0.234,1.203-0.516,1.641s-0.531,0.781-0.75,1.031c-0.094,0.25-0.188,0.531-0.281,0.844s-0.156,0.617-0.188,0.914
			s-0.047,0.523-0.047,0.68S746.169,135.177,746.2,135.239z M741.513,165.567l-0.422-4.359v-0.656l-0.234-0.891
			c0-0.125,0-0.297,0-0.516s0-0.469,0-0.75s0-0.516,0-0.703s0-0.344,0-0.469c-0.313,0.031-0.711,0.039-1.195,0.023
			s-1.031-0.148-1.641-0.398s-1.117-0.602-1.523-1.055s-0.734-0.898-0.984-1.336c-0.063,0.563-0.141,1.219-0.234,1.969
			s-0.211,1.547-0.352,2.391s-0.297,1.539-0.469,2.086s-0.32,0.992-0.445,1.336c0.375,0.25,0.883,0.594,1.523,1.031
			s1.398,0.883,2.273,1.336s1.617,0.742,2.227,0.867S741.138,165.63,741.513,165.567z M736.591,144.286
			c-0.031,0.344-0.055,0.789-0.07,1.336s-0.039,1.195-0.07,1.945s-0.086,1.422-0.164,2.016s-0.164,1.078-0.258,1.453
			c0.219-0.344,0.492-0.781,0.82-1.313s0.672-1.148,1.031-1.852s0.602-1.32,0.727-1.852s0.203-0.969,0.234-1.313
			c-0.156-0.188-0.352-0.367-0.586-0.539s-0.492-0.266-0.773-0.281s-0.492,0.031-0.633,0.141S736.622,144.224,736.591,144.286z
			 M740.716,145.411c-0.156,0.281-0.336,0.648-0.539,1.102s-0.477,0.977-0.82,1.57s-0.672,1.109-0.984,1.547
			s-0.594,0.797-0.844,1.078c0.219,0.031,0.523,0.063,0.914,0.094s0.813-0.023,1.266-0.164s0.758-0.383,0.914-0.727
			s0.234-0.688,0.234-1.031v-2.109L740.716,145.411z"/>
		<path fill="#FFFFFF" d="M797.247,158.724c0-0.063,0.016-0.148,0.047-0.258s0.102-0.227,0.211-0.352s0.227-0.227,0.352-0.305
			s0.234-0.148,0.328-0.211c0.5,0.188,1.109,0.547,1.828,1.078s1.445,1.289,2.18,2.273s1.297,1.844,1.688,2.578
			s0.68,1.305,0.867,1.711c0.156,0.313,0.328,0.75,0.516,1.313s0.211,1.211,0.07,1.945s-0.445,1.281-0.914,1.641
			s-0.938,0.602-1.406,0.727c-0.906,0.094-2.016,0.242-3.328,0.445s-2.844,0.367-4.594,0.492s-3.281,0.086-4.594-0.117
			s-2.406-0.461-3.281-0.773c-0.188-0.125-0.375-0.289-0.563-0.492s-0.344-0.453-0.469-0.75s-0.211-0.555-0.258-0.773
			s-0.086-0.391-0.117-0.516c0-0.125,0-0.281,0-0.469s0-0.406,0-0.656s0-0.461,0-0.633s0-0.32,0-0.445v-8.859
			c-0.594,0.563-1.32,1.289-2.18,2.18s-1.859,1.93-3,3.117s-2.148,2.203-3.023,3.047s-1.594,1.516-2.156,2.016
			c-0.406,0.281-0.914,0.531-1.523,0.75s-1.305,0.281-2.086,0.188s-1.469-0.305-2.063-0.633s-1.078-0.617-1.453-0.867
			c0.469-0.375,1.07-0.82,1.805-1.336s1.586-1.148,2.555-1.898s1.82-1.453,2.555-2.109s1.352-1.234,1.852-1.734
			c-0.188-0.031-0.398-0.117-0.633-0.258s-0.438-0.352-0.609-0.633s-0.289-0.547-0.352-0.797s-0.094-0.453-0.094-0.609
			c0-0.125,0.047-0.273,0.141-0.445s0.234-0.367,0.422-0.586s0.313-0.414,0.375-0.586s0.094-0.32,0.094-0.445
			c-0.125-0.469-0.406-1.07-0.844-1.805s-1.031-1.586-1.781-2.555s-1.297-1.82-1.641-2.555s-0.516-1.352-0.516-1.852
			c0.063-0.5,0.297-0.922,0.703-1.266s1.016-0.617,1.828-0.82s1.516-0.5,2.109-0.891s1.031-0.867,1.313-1.43
			c0.406-0.406,0.898-0.93,1.477-1.57s1.234-1.391,1.969-2.25s1.375-1.609,1.922-2.25s1.008-1.18,1.383-1.617
			c-0.656,0.313-1.5,0.867-2.531,1.664s-2.242,1.578-3.633,2.344s-2.555,1.016-3.492,0.75s-1.672-0.773-2.203-1.523
			c-0.031-0.031-0.055-0.078-0.07-0.141s-0.039-0.133-0.07-0.211s-0.055-0.141-0.07-0.188s-0.023-0.102-0.023-0.164
			c-0.156-0.75-0.023-1.586,0.398-2.508s1.281-1.844,2.578-2.766s2.484-1.68,3.563-2.273s1.883-1.094,2.414-1.5
			c0.344-0.219,0.789-0.5,1.336-0.844s1.18-0.742,1.898-1.195s1.344-0.844,1.875-1.172s0.984-0.617,1.359-0.867
			c0.313,0.313,0.609,0.703,0.891,1.172s0.391,1.016,0.328,1.641s-0.227,1.172-0.492,1.641s-0.508,0.859-0.727,1.172
			c0.344,0.063,0.797,0,1.359-0.188s1.219-0.398,1.969-0.633s1.391-0.219,1.922,0.047s0.969,0.664,1.313,1.195
			c0.094,0.469,0.008,1.031-0.258,1.688s-0.813,1.391-1.641,2.203s-1.602,1.508-2.32,2.086s-1.25,1.039-1.594,1.383
			c-0.375,0.281-0.828,0.625-1.359,1.031s-1.156,0.883-1.875,1.43s-1.336,1.023-1.852,1.43s-0.945,0.75-1.289,1.031
			c0.844-0.25,1.922-0.711,3.234-1.383s2.852-1.289,4.617-1.852s3.289-0.656,4.57-0.281s2.328,0.953,3.141,1.734
			c0.281,0.625,0.359,1.391,0.234,2.297s-0.672,1.914-1.641,3.023s-1.938,2.031-2.906,2.766s-1.719,1.32-2.25,1.758
			c-0.031,0.219-0.125,0.492-0.281,0.82s-0.43,0.695-0.82,1.102s-0.75,0.766-1.078,1.078s-0.586,0.578-0.773,0.797
			c0.094,0.281,0.242,0.633,0.445,1.055s0.391,0.914,0.563,1.477s0.227,1.055,0.164,1.477s-0.172,0.773-0.328,1.055
			c0,0.063,0,0.125,0,0.188s0,0.125,0,0.188s0,0.117,0,0.164s0,0.086,0,0.117v3.984c-0.094,0.344-0.109,0.789-0.047,1.336
			s0.328,1.063,0.797,1.547s0.977,0.758,1.523,0.82s1.008,0.047,1.383-0.047c0.406-0.031,0.922-0.055,1.547-0.07
			s1.352-0.086,2.18-0.211s1.547-0.281,2.156-0.469s1.117-0.375,1.523-0.563c0.031-0.156,0.063-0.328,0.094-0.516
			s0.047-0.406,0.047-0.656s0-0.461,0-0.633s0.016-0.32,0.047-0.445c-0.063-0.313-0.188-0.695-0.375-1.148s-0.484-0.977-0.891-1.57
			s-0.758-1.125-1.055-1.594S797.372,159.036,797.247,158.724z M782.716,149.396c-0.344-0.375-0.82-0.617-1.43-0.727
			s-1.172,0.094-1.688,0.609s-0.711,1.07-0.586,1.664s0.391,1.047,0.797,1.359c0.031,0.063,0.063,0.125,0.094,0.188
			s0.063,0.125,0.094,0.188s0.063,0.117,0.094,0.164s0.063,0.086,0.094,0.117L782.716,149.396z M783.935,151.692v-1.031
			l-3.328,2.906c0.063,0.031,0.156,0.07,0.281,0.117s0.266,0.086,0.422,0.117s0.297,0.047,0.422,0.047s0.234-0.016,0.328-0.047
			c0.094-0.094,0.211-0.227,0.352-0.398s0.313-0.375,0.516-0.609s0.391-0.445,0.563-0.633S783.81,151.817,783.935,151.692z
			 M789.794,144.192c-0.375-0.031-0.82-0.031-1.336,0s-1.125,0.18-1.828,0.445s-1.313,0.602-1.828,1.008s-0.945,0.766-1.289,1.078
			c0.344,0.063,0.711,0.211,1.102,0.445s0.703,0.609,0.938,1.125s0.328,0.984,0.281,1.406s-0.117,0.742-0.211,0.961
			c0.313-0.281,0.719-0.633,1.219-1.055s1.008-0.93,1.523-1.523s0.852-1.125,1.008-1.594s0.234-0.875,0.234-1.219
			c0-0.063,0.008-0.141,0.023-0.234s0.031-0.195,0.047-0.305s0.031-0.211,0.047-0.305S789.763,144.255,789.794,144.192z
			 M794.622,154.036c0.156,0.125,0.367,0.25,0.633,0.375s0.57,0.281,0.914,0.469s0.648,0.398,0.914,0.633s0.492,0.445,0.68,0.633
			c-0.219,0.375-0.539,0.781-0.961,1.219s-0.969,0.867-1.641,1.289s-1.266,0.781-1.781,1.078s-0.93,0.555-1.242,0.773l1.969-2.297
			c-0.125-0.125-0.266-0.273-0.422-0.445s-0.344-0.344-0.563-0.516s-0.414-0.313-0.586-0.422s-0.305-0.195-0.398-0.258
			c0.031-0.156,0.117-0.352,0.258-0.586s0.375-0.484,0.703-0.75s0.625-0.492,0.891-0.68S794.466,154.192,794.622,154.036z"/>
		<path fill="#FFFFFF" d="M829.356,127.599c0.719,0.438,1.641,1.094,2.766,1.969s2.07,2.016,2.836,3.422s0.945,2.648,0.539,3.727
			s-1,1.945-1.781,2.602c0.969-0.188,2.195-0.461,3.68-0.82s3.211-0.672,5.18-0.938s3.695-0.289,5.18-0.07s2.727,0.531,3.727,0.938
			c0.906,0.781,1.578,1.773,2.016,2.977s0.422,2.641-0.047,4.313s-0.922,3.133-1.359,4.383s-0.641,2.266-0.609,3.047
			c-0.188,0.719-0.359,1.609-0.516,2.672s-0.391,2.297-0.703,3.703s-0.703,2.625-1.172,3.656s-0.938,1.906-1.406,2.625
			c-0.469,0.594-1.086,1.18-1.852,1.758s-1.656,0.828-2.672,0.75s-1.828-0.453-2.438-1.125s-1.039-1.32-1.289-1.945
			c-0.344-0.25-0.773-0.438-1.289-0.563s-1.102-0.141-1.758-0.047s-1.234,0.195-1.734,0.305s-0.906,0.18-1.219,0.211
			c-0.469,0.031-1.039,0.102-1.711,0.211s-1.461,0.289-2.367,0.539s-1.695,0.531-2.367,0.844s-1.227,0.594-1.664,0.844
			c-0.469-0.031-0.969-0.18-1.5-0.445s-1-0.719-1.406-1.359s-0.688-1.242-0.844-1.805s-0.266-1.016-0.328-1.359
			c-0.469-1.313-1-2.945-1.594-4.898s-1.18-4.234-1.758-6.844s-1.023-4.898-1.336-6.867s-0.563-3.609-0.75-4.922l0.188-0.656
			c0.313-0.25,0.727-0.43,1.242-0.539s1.102,0.023,1.758,0.398s1.211,0.82,1.664,1.336s0.82,0.945,1.102,1.289
			c0.438-0.656,1.039-1.492,1.805-2.508s1.609-2.195,2.531-3.539s1.625-2.516,2.109-3.516s0.82-1.844,1.008-2.531
			c0-0.063,0-0.141,0-0.234s0.008-0.211,0.023-0.352s0.031-0.266,0.047-0.375S829.325,127.661,829.356,127.599z M828.185,160.458
			c0.25-0.344,0.594-0.773,1.031-1.289s0.984-1.109,1.641-1.781s1.242-1.266,1.758-1.781s0.961-0.961,1.336-1.336
			c-0.281-0.125-0.695-0.281-1.242-0.469s-1.156-0.477-1.828-0.867s-1.164-0.813-1.477-1.266s-0.484-0.883-0.516-1.289l0.234-1.641
			c0.594-0.25,1.344-0.641,2.25-1.172s1.969-0.992,3.188-1.383s2.281-0.453,3.188-0.188s1.672,0.648,2.297,1.148
			c0.594,0.375,1.086,0.93,1.477,1.664s0.375,1.586-0.047,2.555s-1.023,1.688-1.805,2.156s-1.438,0.734-1.969,0.797
			c-0.5,0.156-1.109,0.43-1.828,0.82s-1.555,0.953-2.508,1.688s-1.781,1.422-2.484,2.063s-1.289,1.164-1.758,1.57
			c0.594-0.094,1.336-0.188,2.227-0.281s1.93-0.172,3.117-0.234s2.234-0.125,3.141-0.188s1.656-0.141,2.25-0.234
			c0.563-0.188,1.094-0.547,1.594-1.078s0.852-1.281,1.055-2.25s0.344-1.82,0.422-2.555s0.211-1.305,0.398-1.711
			c0.063-0.438,0.172-1,0.328-1.688s0.344-1.492,0.563-2.414s0.383-1.727,0.492-2.414s0.195-1.266,0.258-1.734
			c-0.5-0.469-1.148-0.813-1.945-1.031s-1.758-0.188-2.883,0.094s-2.102,0.547-2.93,0.797s-1.508,0.359-2.039,0.328
			c-0.5,0.188-1.266,0.422-2.297,0.703s-2.195,0.766-3.492,1.453s-2.219,1.461-2.766,2.32s-0.82,1.648-0.82,2.367
			c0.063,0.563,0.188,1.25,0.375,2.063s0.43,1.766,0.727,2.859s0.555,2.039,0.773,2.836S828.06,159.927,828.185,160.458z"/>
		<path fill="#FFFFFF" d="M868.731,155.114c-0.281,0.531-0.563,1.18-0.844,1.945s-0.406,1.656-0.375,2.672s0.258,1.898,0.68,2.648
			s0.852,1.391,1.289,1.922c0.063,0.25,0.125,0.602,0.188,1.055s0,0.977-0.188,1.57s-0.461,1.055-0.82,1.383
			s-0.695,0.555-1.008,0.68c-0.406-0.25-0.836-0.586-1.289-1.008s-0.867-0.969-1.242-1.641s-0.656-1.258-0.844-1.758
			s-0.344-0.891-0.469-1.172c-0.094-0.313-0.07-0.688,0.07-1.125s0.422-0.953,0.844-1.547s0.727-1.109,0.914-1.547
			s0.25-0.813,0.188-1.125c0.031-0.688,0.063-1.555,0.094-2.602s0.07-2.266,0.117-3.656s0.094-2.609,0.141-3.656
			s0.086-1.93,0.117-2.648c-0.063-0.219-0.203-0.453-0.422-0.703s-0.523-0.523-0.914-0.82s-0.727-0.578-1.008-0.844
			s-0.469-0.523-0.563-0.773c-0.063-0.844,0.281-1.438,1.031-1.781s1.727-0.086,2.93,0.773s1.828,1.805,1.875,2.836
			s-0.305,1.813-1.055,2.344c-0.219,0.594-0.414,1.32-0.586,2.18s-0.281,1.859-0.328,3s-0.086,2.133-0.117,2.977
			s-0.094,1.547-0.188,2.109c0,0.031,0,0.063,0,0.094s0,0.063,0,0.094s0,0.078,0,0.141L868.731,155.114z M869.669,136.083
			l1.781-1.781c-0.313-0.219-0.719-0.477-1.219-0.773s-1.078-0.672-1.734-1.125s-1.203-0.906-1.641-1.359s-0.781-0.867-1.031-1.242
			v-1.125c0.594-0.781,1.492-1.352,2.695-1.711s2.477-0.102,3.82,0.773s2.133,1.906,2.367,3.094s0.164,2.141-0.211,2.859
			c-0.281,0.281-0.625,0.555-1.031,0.82s-0.875,0.492-1.406,0.68s-1,0.352-1.406,0.492S869.919,135.958,869.669,136.083z
			 M894.278,134.302l-0.422,3.563c0.406-0.156,1.023-0.297,1.852-0.422s1.781-0.016,2.859,0.328s1.875,0.867,2.391,1.57
			s0.836,1.367,0.961,1.992c-0.219,1.5-0.344,3.359-0.375,5.578s0.039,4.797,0.211,7.734s0.266,5.508,0.281,7.711
			s-0.055,4.039-0.211,5.508c-0.094,0.313-0.242,0.742-0.445,1.289s-0.555,1.109-1.055,1.688s-1.008,0.914-1.523,1.008
			s-0.945,0.063-1.289-0.094c-0.469-0.281-0.898-0.695-1.289-1.242s-0.688-1.219-0.891-2.016s-0.398-1.477-0.586-2.039
			s-0.406-1-0.656-1.313c-0.781-0.188-1.758-0.242-2.93-0.164s-2.539,0.258-4.102,0.539s-2.922,0.438-4.078,0.469
			s-2.109-0.047-2.859-0.234c-0.281-0.219-0.578-0.508-0.891-0.867s-0.578-0.789-0.797-1.289s-0.375-0.93-0.469-1.289
			s-0.172-0.664-0.234-0.914c0-0.875,0.023-1.961,0.07-3.258s0.094-2.82,0.141-4.57s0.086-3.281,0.117-4.594
			s0.063-2.406,0.094-3.281l-0.234-1.313c0.031-0.469,0.258-0.875,0.68-1.219s1.039-0.625,1.852-0.844s1.469-0.531,1.969-0.938
			s0.813-0.891,0.938-1.453c0.063-0.188,0.109-0.438,0.141-0.75s0.047-0.664,0.047-1.055s-0.008-0.734-0.023-1.031
			s-0.008-0.555,0.023-0.773c-0.313-0.344-0.711-0.664-1.195-0.961s-1.063-0.594-1.734-0.891s-1.234-0.648-1.688-1.055
			s-0.805-0.844-1.055-1.313c-0.031-0.031-0.055-0.078-0.07-0.141s-0.031-0.133-0.047-0.211s-0.023-0.148-0.023-0.211
			s0-0.125,0-0.188c0.094-0.688,0.422-1.367,0.984-2.039s1.438-1.234,2.625-1.688s2.242-0.797,3.164-1.031s1.633-0.477,2.133-0.727
			c0.75-0.156,1.68-0.391,2.789-0.703s2.406-0.578,3.891-0.797s2.789-0.211,3.914,0.023s2.063,0.555,2.813,0.961
			c0.531,0.406,1.063,0.992,1.594,1.758s0.75,1.648,0.656,2.648s-0.477,1.766-1.148,2.297s-1.32,0.875-1.945,1.031
			c-0.281,0.094-0.633,0.203-1.055,0.328s-0.906,0.25-1.453,0.375s-1.023,0.227-1.43,0.305S894.528,134.239,894.278,134.302z
			 M883.544,144.802c-0.188-0.188-0.398-0.344-0.633-0.469s-0.516-0.164-0.844-0.117s-0.609,0.141-0.844,0.281
			s-0.43,0.242-0.586,0.305v16.125l6.047-3.797c-0.219-0.031-0.508-0.055-0.867-0.07s-0.766-0.109-1.219-0.281
			s-0.797-0.414-1.031-0.727s-0.398-0.625-0.492-0.938c-0.094-0.25-0.07-0.57,0.07-0.961s0.453-0.828,0.938-1.313
			s0.938-0.891,1.359-1.219s0.758-0.586,1.008-0.773c-0.313,0-0.727-0.031-1.242-0.094s-1.102-0.25-1.758-0.563
			s-1.156-0.703-1.5-1.172s-0.563-0.906-0.656-1.313c0-0.156,0.055-0.367,0.164-0.633s0.297-0.555,0.563-0.867
			s0.539-0.586,0.82-0.82S883.356,144.958,883.544,144.802z M887.81,151.317c0.313-0.063,0.75-0.125,1.313-0.188
			s1.219-0.031,1.969,0.094s1.367,0.359,1.852,0.703s0.852,0.688,1.102,1.031c-0.031,0.531-0.227,1.07-0.586,1.617
			s-0.977,1.031-1.852,1.453s-1.656,0.758-2.344,1.008s-1.188,0.484-1.5,0.703c-0.25,0.188-0.563,0.406-0.938,0.656
			s-0.813,0.547-1.313,0.891s-0.938,0.633-1.313,0.867s-0.672,0.43-0.891,0.586c0.625-0.063,1.445-0.234,2.461-0.516
			s2.203-0.508,3.563-0.68s2.523-0.109,3.492,0.188s1.75,0.68,2.344,1.148c0.063,0.156,0.109,0.344,0.141,0.563
			s-0.008,0.469-0.117,0.75s-0.234,0.516-0.375,0.703s-0.242,0.359-0.305,0.516l2.25,1.125l-0.703-23.531h-1.781l-0.656,0.656
			c-0.031,0.375,0.047,0.828,0.234,1.359s0.391,1.148,0.609,1.852s0.242,1.313,0.07,1.828s-0.445,0.945-0.82,1.289
			c-0.313,0.281-0.711,0.539-1.195,0.773s-1.063,0.461-1.734,0.68s-1.258,0.492-1.758,0.82S888.122,150.942,887.81,151.317z
			 M886.45,135.38c0.125,0.25,0.234,0.539,0.328,0.867s0.141,0.719,0.141,1.172s-0.008,0.844-0.023,1.172s-0.008,0.602,0.023,0.82
			c0.156-0.063,0.367-0.117,0.633-0.164s0.57-0.102,0.914-0.164s0.641-0.164,0.891-0.305s0.469-0.289,0.656-0.445
			c-0.031-0.188-0.031-0.422,0-0.703s0.086-0.609,0.164-0.984s0.141-0.703,0.188-0.984s0.086-0.516,0.117-0.703L886.45,135.38z
			 M890.247,142.13c-0.188,0.031-0.43,0.055-0.727,0.07s-0.625,0.086-0.984,0.211s-0.656,0.313-0.891,0.563
			s-0.414,0.484-0.539,0.703c0.156-0.031,0.367-0.063,0.633-0.094s0.57-0.063,0.914-0.094s0.648-0.086,0.914-0.164
			s0.492-0.18,0.68-0.305V142.13z"/>
	</g>
	<g>
		<rect x="-0.333" y="0.788" fill="#AE2D2D" width="168" height="169"/>
		<path fill="#FFFFFF" d="M161.331,90.606c-0.637-3.221-4.346-4.016-7.891-5.188c-7.233-2.391-13.32-4.636-23.02-7.02
			c-13.177-3.24-15.043-0.832-14.764-6.161c0.281-5.329,12.483-7.433,15.99-7.854c3.505-0.421,4.769-7.341,3.085-8.001
			c-1.572-0.615-8.696-9.951-15.148-12.477c-6.451-2.524-21.036,1.404-21.036,1.404C73.583,25.115,64.794,27.64,64.794,27.64
			c-1.871,2.338,1.87,8.602,1.87,8.602c-5.33-0.934-6.92,1.871-6.92,1.871C61.988,50.36,91.255,51.2,93.404,53.819
			c2.151,2.617,3.461,5.422,1.217,8.414c-2.39,3.187-18.513,1.064-35.438,2.525C42.979,66.155,21.307,75.78,16.828,76.817
			c-4.629,1.072-8.791,2.15-9.631,5.143c-0.713,2.543,0.469,3.906,2.776,5.31c2.011,1.226,2.51,1.752,3.559,2.418
			c5.014,3.686,10.098,9.595,9.459,16.017c-0.015,0.151-0.038,0.302-0.059,0.452c-0.094,2.683-0.959,4.813-2.081,7.161
			c-2.025,4.237-7.91,10.23-7.91,10.23c-0.84,0.896-3.729,4.254-6.008,10.638c-2.398,6.716-0.203,12.304,4.003,9.766
			c2.543-1.534,7.026-6.922,10.593-13.69c0.636-1.205,1.372-2.417,2.146-3.585c16.366-27.068,56.371-40.403,85.686-40.403
			c8.849,0,18.675,1.217,28.529,3.658c8.884,1.668,15.073,4.209,18.075,5.418C159.546,96.793,161.969,93.827,161.331,90.606z"/>
	</g>
</g>
</svg>
