<?xml version="1.0" encoding="utf-8"?>
<!DOCTYPE svg PUBLIC "-//W3C//DTD SVG 1.1//EN" "http://www.w3.org/Graphics/SVG/1.1/DTD/svg11.dtd">
<svg version="1.1" id="Layer_1" xmlns="http://www.w3.org/2000/svg" xmlns:xlink="http://www.w3.org/1999/xlink" x="0px" y="0px"
	 width="900.875px" height="169.94px" viewBox="0 0 900.875 169.94" enable-background="new 0 0 900.875 169.94"
	 xml:space="preserve">
<g>
	<path fill="#2F2A32" d="M-720.936,95.201v-0.815c4.08-4.761,7.344-10.064,7.344-17.001V17.68c0-6.936-3.264-12.24-7.344-17V0
		h26.248l30.736,70.177L-633.487,0h22.984v0.68c-3.129,4.216-4.761,10.2-4.761,17.136v59.568c0,6.937,1.632,12.92,4.761,17.136
		v0.681h-29.241v-0.681c3.128-4.215,4.761-10.199,4.761-17.136v-63.92l-35.769,81.737h-2.856l-35.904-81.193v63.376
		c0,6.937,3.264,12.24,7.344,17.001v0.815H-720.936z"/>
	<path fill="#2F2A32" d="M-596.089,61.201c0-20.808,14.416-35.769,34.68-35.769c20.129,0,34.545,14.96,34.545,35.769
		S-541.281,96.97-561.41,96.97C-581.673,96.97-596.089,82.009-596.089,61.201z M-546.585,61.201c0-18.768-4.488-32.64-14.824-32.64
		s-14.96,13.872-14.96,32.64s4.624,32.64,14.96,32.64S-546.585,79.969-546.585,61.201z"/>
	<path fill="#2F2A32" d="M-517.074,61.201c0-20.808,14.416-35.769,34.68-35.769c20.128,0,34.544,14.96,34.544,35.769
		s-14.416,35.769-34.544,35.769C-502.658,96.97-517.074,82.009-517.074,61.201z M-467.57,61.201c0-18.768-4.488-32.64-14.824-32.64
		s-14.96,13.872-14.96,32.64s4.624,32.64,14.96,32.64S-467.57,79.969-467.57,61.201z"/>
	<path fill="#2F2A32" d="M-434.387,95.201v-0.681c2.447-3.535,3.807-9.111,3.807-15.368V48.688c0-7.752-1.768-11.832-4.895-14.96
		v-0.68l22.576-7.616h0.68v13.329h0.68c3.4-7.344,10.881-13.329,21.352-13.329c13.465,0,21.896,9.521,21.896,22.984v30.736
		c0,6.256,1.359,11.833,3.809,15.368v0.681h-25.977v-0.681c2.447-3.535,3.809-9.111,3.809-15.368V48.825
		c0-7.344-4.896-12.784-12.377-12.784c-7.072,0-13.191,4.896-13.191,12.784v30.328c0,6.256,1.359,11.833,3.807,15.368v0.681
		H-434.387z"/>
	<path fill="#2F2A32" d="M-314.027,95.201v-0.681c3.127-4.215,4.76-10.199,4.76-17.136V17.816c0-6.936-1.633-12.92-4.76-17.136V0
		h29.24v0.68c-3.129,4.216-4.762,10.2-4.762,17.136v26.656h39.986V17.816c0-6.936-1.633-12.92-4.762-17.136V0h29.24v0.68
		c-3.127,4.216-4.76,10.2-4.76,17.136v59.568c0,6.937,1.633,12.92,4.76,17.136v0.681h-29.24v-0.681
		c3.129-4.215,4.762-10.199,4.762-17.136V47.873h-39.986v29.512c0,6.937,1.633,12.92,4.762,17.136v0.681H-314.027z"/>
	<path fill="#2F2A32" d="M-145.797,90.441c-2.176,3.945-7.344,6.529-13.328,6.529c-7.617,0-12.377-3.809-13.328-9.929l-0.137-0.544
		h-0.408c-3.264,5.848-9.248,10.473-19.176,10.473c-11.152,0-17.68-5.712-17.68-14.688c0-15.776,19.313-22.577,37.4-22.577v-8.432
		c0-9.928-6.393-17-17.273-17c-8.023,0-14.143,3.944-17.543,10.336h-1.359c3.127-11.968,13.871-19.176,27.199-19.176
		c17.408,0,27.336,10.744,27.336,25.84v34.137c0,4.08,2.041,5.44,4.217,5.44c1.768,0,2.992-0.544,3.4-1.088L-145.797,90.441z
		 M-172.453,78.473v-15.64c-11.016,0.272-18.361,5.712-18.361,15.096c0,7.48,4.217,10.2,8.568,10.2
		C-176.533,88.129-172.453,83.641-172.453,78.473z"/>
	<path fill="#2F2A32" d="M-135.463,95.201v-0.681c2.447-3.535,3.807-9.111,3.807-15.368V48.688c0-7.752-1.768-11.832-4.895-14.96
		v-0.68l22.576-7.616h0.68v18.632h0.68c2.855-11.288,9.52-18.632,23.801-18.632v17h-7.889c-11.152,0-16.592,4.08-16.592,15.504
		v21.216c0,6.256,1.359,11.833,3.807,15.368v0.681H-135.463z"/>
	<path fill="#2F2A32" d="M-20,72.217C-23.127,87.041-34.416,96.97-49.92,96.97c-17.951,0-32.369-12.241-32.369-34.137
		c0-22.712,15.641-37.401,33.865-37.401c17.408,0,27.473,12.24,27.473,25.977h-46.514c0.816,21.08,12.648,32.096,26.656,32.096
		c8.977,0,16.049-4.352,19.449-11.288H-20z M-67.465,48.281h28.426c-1.088-11.288-5.984-18.904-14.553-18.904
		C-61.48,29.376-67.191,35.632-67.465,48.281z"/>
</g>
<g>
	<path fill="#2F2A32" d="M-694.328,151.46c1.64,1.961,2.46,4.24,2.46,6.84c0,2.121-0.53,4.031-1.59,5.73
		c-1.061,1.701-2.61,3.041-4.65,4.02c-2.04,0.98-4.48,1.471-7.32,1.471h-14.52v-41.941h14.1c4.239,0,7.47,0.982,9.69,2.941
		c2.22,1.959,3.33,4.5,3.33,7.619c0,2.602-0.7,4.711-2.1,6.33c-1.4,1.621-3.201,2.75-5.4,3.391
		C-697.968,148.3-695.968,149.501-694.328,151.46z M-715.748,146.12h9.78c2.84,0,5.03-0.67,6.57-2.01
		c1.539-1.34,2.31-3.189,2.31-5.551c0-2.318-0.771-4.139-2.31-5.459c-1.541-1.32-3.791-1.98-6.75-1.98h-9.6V146.12z
		 M-698.618,163.819c1.7-1.439,2.55-3.42,2.55-5.939s-0.891-4.529-2.67-6.029c-1.78-1.5-4.17-2.25-7.17-2.25h-9.84v16.379h10.02
		C-702.688,165.979-700.318,165.261-698.618,163.819z"/>
	<path fill="#2F2A32" d="M-647.828,159.56h-19.08l-3.66,9.961h-4.44l15.3-41.4h4.74l15.24,41.4h-4.44L-647.828,159.56z
		 M-649.088,156.079l-8.28-22.68l-8.28,22.68H-649.088z"/>
	<path fill="#2F2A32" d="M-616.809,127.579v41.941h-4.2v-41.941H-616.809z"/>
	<path fill="#2F2A32" d="M-575.89,127.579v31.74c0,3.201-0.98,5.771-2.939,7.711c-1.961,1.939-4.581,2.91-7.86,2.91
		c-3.4,0-6.11-1.029-8.13-3.09c-2.021-2.061-3.03-4.85-3.03-8.371h4.261c0.039,2.281,0.609,4.141,1.71,5.58
		c1.1,1.441,2.829,2.16,5.189,2.16c2.24,0,3.9-0.66,4.98-1.98c1.08-1.318,1.62-2.959,1.62-4.92v-31.74H-575.89z"/>
	<path fill="#2F2A32" d="M-549.13,127.579v41.941h-4.2v-41.941H-549.13z"/>
	<path fill="#2F2A32" d="M-523.571,127.579v26.4c0,4.162,0.989,7.24,2.97,9.24c1.979,2,4.689,3,8.13,3c3.439,0,6.13-0.99,8.07-2.969
		c1.939-1.98,2.91-5.07,2.91-9.271v-26.4h4.199v26.342c0,5.32-1.409,9.32-4.229,12s-6.49,4.02-11.01,4.02
		c-4.521,0-8.19-1.34-11.011-4.02c-2.819-2.68-4.229-6.68-4.229-12v-26.342H-523.571z"/>
</g>
<g>
	<rect x="-920.875" y="0.788" fill="#AE2D2D" width="169" height="169"/>
	<path fill="#FFFFFF" d="M-800.078,43.684c6.461,2.528,13.596,11.879,15.172,12.496c1.686,0.661,0.42,7.591-3.092,8.012
		s-15.732,2.528-16.014,7.866c-0.279,5.338,1.59,2.926,14.787,6.17c9.713,2.388,15.811,4.637,23.055,7.031
		c3.551,1.174,7.264,1.97,7.904,5.195c0.637,3.227-1.789,6.196-5.375,4.751c-3.588-1.446-11.707-4.795-23.551-6.286
		c-11.754-1.479-31.758-0.637-41.074,1.12c-8.119,1.53-17.887,3.935-39.049,13.297c-3.688,1.631-23.691,13.015-26.033,17.884
		s-11.332,17.872-15.545,20.413c-4.215,2.543-5.158-0.481-4.012-7.532c1.148-7.054,6.07-9.417,6.164-10.728
		c0,0,6.139-5.763,7.775-10.173c1.549-4.174-1.268-15.158-2.766-17.778c-1.498-2.622-1.732-4.449-5.758-6.322
		c-4.027-1.873-5.994-4.308-5.15-7.305c0.842-2.997,4.963-4.308,9.645-5.151c4.684-0.842,40.268-14.326,53.658-13.764
		c13.393,0.562,22.008,2.154,24.256-0.843c2.248-2.997,0.936-5.806-1.217-8.428c-2.154-2.622-31.467-3.463-33.715-15.731
		c0,0,1.594-2.81,6.93-1.873c0,0-3.746-6.274-1.871-8.615c0,0,8.803-2.528,33.807,17.699
		C-821.146,45.09-806.539,41.155-800.078,43.684z"/>
</g>
<g>
	<path fill="#FFFFFF" d="M199.939,95.201v-0.815c4.08-4.761,7.344-10.064,7.344-17.001V17.68c0-6.936-3.264-12.24-7.344-17V0h26.248
		l30.736,70.177L287.389,0h22.984v0.68c-3.129,4.216-4.762,10.2-4.762,17.136v59.568c0,6.937,1.633,12.92,4.762,17.136v0.681
		h-29.242v-0.681c3.129-4.215,4.762-10.199,4.762-17.136v-63.92l-35.77,81.737h-2.855l-35.904-81.193v63.376
		c0,6.937,3.264,12.24,7.344,17.001v0.815H199.939z"/>
	<path fill="#FFFFFF" d="M324.785,61.201c0-20.808,14.416-35.769,34.68-35.769c20.129,0,34.545,14.96,34.545,35.769
		S379.594,96.97,359.465,96.97C339.201,96.97,324.785,82.009,324.785,61.201z M374.289,61.201c0-18.768-4.488-32.64-14.824-32.64
		s-14.959,13.872-14.959,32.64s4.623,32.64,14.959,32.64S374.289,79.969,374.289,61.201z"/>
	<path fill="#FFFFFF" d="M403.801,61.201c0-20.808,14.416-35.769,34.68-35.769c20.129,0,34.545,14.96,34.545,35.769
		S458.609,96.97,438.48,96.97C418.217,96.97,403.801,82.009,403.801,61.201z M453.305,61.201c0-18.768-4.488-32.64-14.824-32.64
		s-14.959,13.872-14.959,32.64s4.623,32.64,14.959,32.64S453.305,79.969,453.305,61.201z"/>
	<path fill="#FFFFFF" d="M486.488,95.201v-0.681c2.447-3.535,3.807-9.111,3.807-15.368V48.688c0-7.752-1.768-11.832-4.895-14.96
		v-0.68l22.576-7.616h0.68v13.329h0.68c3.4-7.344,10.881-13.329,21.352-13.329c13.465,0,21.896,9.521,21.896,22.984v30.736
		c0,6.256,1.359,11.833,3.809,15.368v0.681h-25.977v-0.681c2.447-3.535,3.809-9.111,3.809-15.368V48.825
		c0-7.344-4.896-12.784-12.377-12.784c-7.072,0-13.191,4.896-13.191,12.784v30.328c0,6.256,1.359,11.833,3.807,15.368v0.681H486.488
		z"/>
	<path fill="#FFFFFF" d="M606.848,95.201v-0.681c3.127-4.215,4.76-10.199,4.76-17.136V17.816c0-6.936-1.633-12.92-4.76-17.136V0
		h29.24v0.68c-3.129,4.216-4.762,10.2-4.762,17.136v26.656h39.986V17.816c0-6.936-1.633-12.92-4.762-17.136V0h29.24v0.68
		c-3.127,4.216-4.76,10.2-4.76,17.136v59.568c0,6.937,1.633,12.92,4.76,17.136v0.681h-29.24v-0.681
		c3.129-4.215,4.762-10.199,4.762-17.136V47.873h-39.986v29.512c0,6.937,1.633,12.92,4.762,17.136v0.681H606.848z"/>
	<path fill="#FFFFFF" d="M775.078,90.441c-2.176,3.945-7.344,6.529-13.328,6.529c-7.617,0-12.377-3.809-13.328-9.929l-0.137-0.544
		h-0.408c-3.264,5.848-9.248,10.473-19.176,10.473c-11.152,0-17.68-5.712-17.68-14.688c0-15.776,19.313-22.577,37.4-22.577v-8.432
		c0-9.928-6.393-17-17.273-17c-8.023,0-14.143,3.944-17.543,10.336h-1.359c3.127-11.968,13.871-19.176,27.199-19.176
		c17.408,0,27.336,10.744,27.336,25.84v34.137c0,4.08,2.041,5.44,4.217,5.44c1.768,0,2.992-0.544,3.4-1.088L775.078,90.441z
		 M748.422,78.473v-15.64c-11.016,0.272-18.361,5.712-18.361,15.096c0,7.48,4.217,10.2,8.568,10.2
		C744.342,88.129,748.422,83.641,748.422,78.473z"/>
	<path fill="#FFFFFF" d="M785.412,95.201v-0.681c2.447-3.535,3.807-9.111,3.807-15.368V48.688c0-7.752-1.768-11.832-4.895-14.96
		v-0.68l22.576-7.616h0.68v18.632h0.68c2.855-11.288,9.52-18.632,23.801-18.632v17h-7.889c-11.152,0-16.592,4.08-16.592,15.504
		v21.216c0,6.256,1.359,11.833,3.807,15.368v0.681H785.412z"/>
	<path fill="#FFFFFF" d="M900.875,72.217c-3.127,14.824-14.416,24.753-29.92,24.753c-17.951,0-32.369-12.241-32.369-34.137
		c0-22.712,15.641-37.401,33.865-37.401c17.408,0,27.473,12.24,27.473,25.977H853.41c0.816,21.08,12.648,32.096,26.656,32.096
		c8.977,0,16.049-4.352,19.449-11.288H900.875z M853.41,48.281h28.426c-1.088-11.288-5.984-18.904-14.553-18.904
		C859.395,29.376,853.684,35.632,853.41,48.281z"/>
</g>
<g>
	<path fill="#FFFFFF" d="M226.547,151.46c1.641,1.961,2.461,4.24,2.461,6.84c0,2.121-0.531,4.031-1.59,5.73
		c-1.061,1.701-2.61,3.041-4.65,4.02c-2.04,0.98-4.48,1.471-7.32,1.471h-14.52v-41.941h14.1c4.239,0,7.471,0.982,9.689,2.941
		c2.221,1.959,3.33,4.5,3.33,7.619c0,2.602-0.699,4.711-2.1,6.33c-1.4,1.621-3.201,2.75-5.4,3.391
		C222.907,148.3,224.906,149.501,226.547,151.46z M205.127,146.12h9.78c2.84,0,5.03-0.67,6.57-2.01
		c1.539-1.34,2.31-3.189,2.31-5.551c0-2.318-0.771-4.139-2.31-5.459c-1.54-1.32-3.79-1.98-6.75-1.98h-9.601V146.12z
		 M222.258,163.819c1.699-1.439,2.55-3.42,2.55-5.939s-0.891-4.529-2.671-6.029c-1.779-1.5-4.17-2.25-7.17-2.25h-9.84v16.379h10.021
		C218.188,165.979,220.557,165.261,222.258,163.819z"/>
	<path fill="#FFFFFF" d="M273.047,159.56h-19.08l-3.66,9.961h-4.439l15.3-41.4h4.739l15.24,41.4h-4.439L273.047,159.56z
		 M271.787,156.079l-8.28-22.68l-8.28,22.68H271.787z"/>
	<path fill="#FFFFFF" d="M304.066,127.579v41.941h-4.201v-41.941H304.066z"/>
	<path fill="#FFFFFF" d="M344.984,127.579v31.74c0,3.201-0.98,5.771-2.939,7.711c-1.961,1.939-4.58,2.91-7.859,2.91
		c-3.4,0-6.111-1.029-8.131-3.09s-3.029-4.85-3.029-8.371h4.26c0.039,2.281,0.609,4.141,1.711,5.58c1.1,1.441,2.828,2.16,5.189,2.16
		c2.24,0,3.9-0.66,4.98-1.98c1.08-1.318,1.619-2.959,1.619-4.92v-31.74H344.984z"/>
	<path fill="#FFFFFF" d="M371.744,127.579v41.941h-4.199v-41.941H371.744z"/>
	<path fill="#FFFFFF" d="M397.305,127.579v26.4c0,4.162,0.988,7.24,2.969,9.24s4.689,3,8.131,3c3.439,0,6.129-0.99,8.07-2.969
		c1.939-1.98,2.91-5.07,2.91-9.271v-26.4h4.199v26.342c0,5.32-1.41,9.32-4.23,12s-6.49,4.02-11.01,4.02s-8.189-1.34-11.01-4.02
		s-4.23-6.68-4.23-12v-26.342H397.305z"/>
</g>
<g>
	<rect x="0.125" y="0.788" fill="#AE2D2D" width="169" height="169"/>
	<path fill="#FFFFFF" d="M120.797,43.684c6.461,2.528,13.596,11.879,15.172,12.496c1.686,0.661,0.42,7.591-3.092,8.012
		s-15.732,2.528-16.014,7.866c-0.279,5.338,1.59,2.926,14.787,6.17c9.713,2.388,15.811,4.637,23.055,7.031
		c3.551,1.174,7.264,1.97,7.904,5.195c0.637,3.227-1.789,6.196-5.375,4.751c-3.588-1.446-11.707-4.795-23.551-6.286
		c-11.754-1.479-31.758-0.637-41.074,1.12c-8.119,1.53-17.887,3.935-39.049,13.297c-3.688,1.631-23.691,13.015-26.033,17.884
		s-11.332,17.872-15.545,20.413c-4.215,2.543-5.158-0.481-4.012-7.532c1.148-7.054,6.07-9.417,6.164-10.728
		c0,0,6.139-5.763,7.775-10.173c1.549-4.174-1.268-15.158-2.766-17.778c-1.498-2.622-1.732-4.449-5.758-6.322
		c-4.027-1.873-5.994-4.308-5.15-7.305c0.842-2.997,4.963-4.308,9.645-5.151c4.684-0.842,40.268-14.326,53.658-13.764
		c13.393,0.562,22.008,2.154,24.256-0.843c2.248-2.997,0.936-5.806-1.217-8.428c-2.154-2.622-31.467-3.463-33.715-15.731
		c0,0,1.594-2.81,6.93-1.873c0,0-3.746-6.274-1.871-8.615c0,0,8.803-2.528,33.807,17.699
		C99.729,45.09,114.336,41.155,120.797,43.684z"/>
</g>
</svg>
